<?xml version="1.0" standalone="no"?>
<!DOCTYPE svg PUBLIC "-//W3C//DTD SVG 20010904//EN"
 "http://www.w3.org/TR/2001/REC-SVG-20010904/DTD/svg10.dtd">
<svg version="1.0" xmlns="http://www.w3.org/2000/svg"
 width="800.000000pt" height="761.000000pt" viewBox="0 0 800.000000 761.000000"
 preserveAspectRatio="xMidYMid meet">

<g transform="translate(0.000000,761.000000) scale(0.100000,-0.100000)"
fill="#000000" stroke="none">
<path d="M0 5665 l0 -1945 25 -6 c14 -3 32 -4 40 0 11 4 15 -1 15 -19 0 -14 4
-25 10 -25 18 0 27 -65 18 -138 -7 -64 -12 -76 -41 -102 -17 -16 -40 -30 -49
-30 -17 0 -18 -88 -18 -1700 l0 -1700 4000 0 4000 0 0 3805 0 3805 -1471 0
c-1396 0 -1470 -1 -1465 -17 36 -115 230 -1179 326 -1783 12 -74 25 -157 30
-185 6 -27 26 -149 45 -270 59 -363 94 -574 115 -680 70 -357 95 -478 131
-620 115 -461 307 -1014 395 -1140 23 -33 169 -188 324 -345 271 -274 501
-520 585 -625 22 -27 43 -52 46 -55 25 -21 199 -273 256 -370 45 -75 133 -260
167 -348 89 -227 108 -322 113 -548 3 -148 1 -183 -11 -193 -8 -6 -12 -22 -10
-34 2 -12 2 -16 -2 -9 -10 21 -24 13 -24 -13 0 -27 -1 -28 -100 -26 -76 2
-117 11 -99 22 27 16 -10 33 -81 37 -51 3 -70 8 -70 18 0 10 -14 14 -48 14
-26 0 -53 5 -59 11 -6 6 -28 13 -49 15 -108 12 -124 16 -124 29 0 21 -32 35
-53 24 -11 -7 -24 -6 -39 3 -13 7 -27 11 -32 10 -12 -4 -37 19 -30 29 3 5 -3
9 -14 9 -10 0 -22 3 -26 7 -4 4 -22 9 -39 10 -78 5 -159 20 -165 30 -4 6 -40
16 -79 23 -40 6 -73 16 -73 21 0 5 7 9 15 9 23 0 18 17 -7 23 -13 3 -49 9 -80
12 -55 7 -72 18 -45 28 17 8 -7 24 -58 39 -22 7 -43 16 -46 21 -3 5 -20 6 -38
4 -17 -3 -31 -1 -31 4 0 13 -68 41 -81 34 -13 -9 -50 5 -44 15 3 5 -7 12 -22
15 -15 4 -38 11 -51 16 -13 5 -31 9 -42 9 -10 0 -22 9 -25 20 -8 25 -43 45
-72 41 -28 -3 -63 16 -63 34 0 9 -17 19 -44 26 -32 8 -43 15 -39 25 3 9 -2 14
-15 14 -11 0 -42 21 -69 48 -27 26 -66 55 -85 65 -35 18 -149 123 -142 130 2
2 -7 14 -21 27 -14 13 -25 29 -25 37 0 7 -4 13 -9 13 -5 0 -15 16 -21 35 -7
20 -20 37 -33 41 -26 8 -56 43 -57 67 0 9 -6 17 -14 17 -8 0 -17 8 -20 18 -4
9 -26 39 -51 67 -25 27 -45 55 -45 62 0 6 -6 18 -13 25 -6 7 -24 32 -39 55
-42 64 -162 193 -180 193 -4 0 -21 13 -38 29 -18 16 -49 37 -71 47 -21 11 -39
22 -39 26 0 9 -68 28 -102 28 -14 0 -28 4 -30 10 -4 12 -204 33 -238 25 -14
-4 -61 -6 -104 -6 -44 1 -95 -5 -113 -11 -25 -9 -44 -9 -73 -1 -37 9 -42 8
-56 -11 -13 -16 -17 -18 -21 -7 -3 8 -21 30 -40 50 l-34 36 30 -45 c27 -42 29
-51 26 -125 -4 -87 -19 -111 -62 -101 -13 3 -35 9 -50 12 -16 4 -30 10 -33 14
-3 4 -21 15 -40 24 -19 8 -43 20 -52 26 -44 25 -54 30 -68 36 -8 3 -27 12 -42
20 -14 8 -33 14 -41 14 -9 0 -17 3 -19 8 -1 4 -46 17 -98 30 -106 25 -258 30
-278 10 -7 -7 -44 -15 -83 -19 -55 -5 -73 -11 -85 -27 -8 -12 -20 -19 -28 -16
-7 3 -19 -2 -26 -11 -7 -8 -18 -15 -25 -15 -7 0 -29 -12 -50 -26 -21 -14 -44
-23 -51 -20 -7 3 -16 1 -19 -4 -3 -4 0 -10 7 -12 19 -7 -14 -37 -37 -35 -11 1
-24 -8 -31 -22 -8 -15 -30 -30 -61 -40 -33 -11 -49 -22 -51 -36 -3 -20 -65
-65 -114 -84 -14 -5 -32 -18 -39 -28 -8 -10 -31 -27 -52 -37 -20 -11 -35 -21
-32 -24 8 -9 -17 -32 -34 -32 -10 0 -30 -14 -46 -30 -16 -17 -35 -30 -42 -30
-7 0 -13 -7 -13 -15 0 -8 -7 -15 -15 -15 -9 0 -38 -11 -65 -25 -27 -14 -56
-25 -65 -25 -8 0 -15 -8 -15 -18 0 -13 -16 -24 -52 -37 -29 -10 -68 -27 -86
-37 -18 -10 -41 -18 -51 -18 -28 0 -84 -26 -105 -49 -10 -11 -23 -18 -28 -15
-5 3 -18 -6 -29 -20 -11 -14 -27 -26 -35 -26 -8 0 -14 -4 -14 -10 0 -5 -16
-10 -36 -10 -20 0 -42 -6 -48 -13 -6 -8 -39 -22 -74 -32 -35 -10 -66 -25 -71
-32 -4 -8 -21 -15 -37 -17 -16 -2 -32 -4 -37 -5 -4 0 -12 -12 -17 -26 -6 -15
-17 -25 -29 -25 -27 0 -52 -11 -46 -20 3 -5 -15 -18 -40 -30 -25 -12 -45 -26
-45 -30 0 -5 -8 -11 -17 -14 -10 -4 -36 -23 -59 -44 -45 -42 -108 -82 -129
-82 -8 0 -20 -9 -29 -21 -9 -14 -26 -21 -49 -22 -27 -1 -33 -4 -30 -18 6 -21
-46 -37 -58 -17 -12 18 -11 38 1 38 6 0 10 7 10 15 0 8 9 20 20 27 11 7 20 18
20 25 0 7 4 13 10 13 5 0 14 18 20 40 8 28 16 40 29 40 20 0 31 19 31 51 0 12
-5 16 -15 13 -17 -7 -21 21 -5 31 5 3 10 2 10 -4 0 -9 39 -7 70 5 8 3 29 8 45
11 39 6 46 14 51 54 2 19 6 44 10 56 4 14 2 23 -5 23 -6 0 -11 -4 -11 -10 0
-17 -30 -11 -37 7 -4 10 2 23 15 34 18 14 22 28 22 73 0 49 3 56 19 56 11 0
22 6 24 13 4 9 8 9 15 -1 5 -8 20 -12 33 -10 22 3 24 8 25 60 0 31 6 63 13 71
6 8 9 21 6 29 -4 9 1 22 9 31 9 9 16 23 16 31 0 9 8 16 20 16 16 0 20 -7 20
-35 0 -28 4 -35 20 -35 16 0 20 7 20 35 0 24 5 35 15 35 8 0 15 -5 15 -12 0
-6 3 -8 6 -5 4 3 15 2 25 -4 15 -7 19 -6 19 6 0 8 -9 15 -20 15 -17 0 -20 7
-20 40 0 33 3 40 20 40 17 0 20 7 20 40 0 33 -3 40 -20 40 -11 0 -20 5 -20 10
0 6 9 10 20 10 11 0 20 5 20 10 0 6 33 10 80 10 47 0 80 -4 80 -10 0 -5 9 -10
20 -10 11 0 20 5 20 10 0 6 9 10 20 10 11 0 20 -4 20 -10 0 -6 33 -10 80 -10
47 0 80 4 80 10 0 13 77 13 82 1 4 -13 76 -15 166 -6 l72 8 2 -64 c1 -35 2
-72 1 -81 0 -10 4 -18 8 -18 27 0 153 47 194 73 43 27 250 188 265 206 16 19
167 136 239 185 226 154 477 236 674 222 64 -5 103 -14 140 -31 28 -14 57 -25
64 -25 7 0 13 -4 13 -10 0 -5 6 -10 13 -10 8 0 24 -11 37 -25 23 -25 74 -55
92 -55 13 0 38 -26 38 -39 0 -12 23 -15 33 -5 11 11 -5 34 -24 34 -11 0 -22 7
-25 15 -4 8 -12 15 -20 15 -8 0 -14 5 -14 10 0 6 7 10 15 10 11 0 15 11 15 40
0 36 -6 45 -31 42 -3 -1 -1 19 4 43 12 54 -4 75 -57 75 -20 0 -36 5 -36 10 0
6 5 10 10 10 6 0 10 14 10 30 0 17 5 30 10 30 6 0 10 8 10 18 -1 15 -2 15 -15
-2 -17 -23 -17 -23 -43 32 -20 42 -20 45 -4 77 9 19 23 35 30 35 7 0 10 -4 7
-10 -3 -5 1 -20 9 -32 9 -13 16 -17 16 -9 0 11 3 11 16 0 14 -11 18 -10 30 6
8 11 12 25 10 32 -3 7 1 13 9 13 8 0 15 2 15 3 0 11 -35 73 -44 80 -13 8 10
27 35 27 9 0 21 11 27 25 10 21 19 25 51 25 50 0 91 36 91 81 0 16 6 37 13 45
33 42 58 65 66 60 10 -7 33 42 25 55 -3 5 0 26 7 46 l12 36 18 -24 19 -24 0
42 c0 32 -5 45 -20 53 -11 6 -20 18 -20 28 0 9 -9 32 -20 50 -11 18 -20 39
-20 47 0 8 -7 15 -15 15 -8 0 -36 29 -62 64 -26 35 -52 61 -58 58 -5 -4 -24
-7 -42 -9 -24 -1 -34 3 -38 17 -6 19 -49 36 -118 47 -16 2 -47 13 -70 24 -33
15 -37 18 -17 17 14 0 34 3 45 8 11 5 133 9 270 8 211 0 267 -3 360 -21 135
-26 275 -65 335 -92 44 -20 110 -28 110 -13 -1 23 -95 82 -131 82 -10 0 -33 7
-51 15 -18 8 -52 19 -76 25 -23 6 -42 15 -42 20 0 5 -26 11 -57 15 -32 3 -66
10 -75 15 -10 6 -33 10 -52 10 -19 0 -36 6 -39 13 -6 16 -58 12 -95 -5 -17 -9
-25 -9 -34 0 -7 7 -38 12 -70 12 -32 0 -58 4 -58 9 0 4 -11 6 -24 4 -15 -3
-30 2 -42 15 -11 11 -28 22 -39 25 -18 4 -18 5 3 6 18 1 22 7 22 31 0 28 2 30
40 30 22 0 40 -5 40 -11 0 -6 31 -10 83 -10 119 0 237 -10 237 -20 0 -5 -19
-10 -42 -11 l-43 -1 39 -4 c29 -3 52 3 86 21 29 16 64 26 88 26 27 0 47 6 59
19 10 10 33 22 50 26 18 3 36 12 40 19 5 6 20 19 36 29 15 10 27 26 27 37 0
12 7 20 18 20 23 1 50 22 45 36 -2 6 8 19 22 28 15 10 25 26 25 41 0 13 7 30
15 39 8 8 15 25 15 37 0 20 -1 21 -18 6 -17 -16 -120 -55 -202 -76 -34 -9 -56
-9 -90 -1 -109 27 -127 31 -152 33 -15 1 -36 12 -48 25 -11 12 -29 22 -40 22
-10 0 -22 4 -25 10 -3 5 -15 10 -26 10 -10 0 -24 9 -31 20 -7 11 -20 20 -29
20 -11 0 -30 28 -55 78 -21 42 -52 100 -69 127 -17 28 -40 70 -50 95 -23 51
-44 80 -61 80 -6 0 -19 26 -29 58 -11 31 -23 61 -27 66 -4 6 -9 21 -10 35 -1
15 -4 -57 -8 -159 -6 -163 -10 -193 -32 -252 -24 -63 -102 -176 -122 -178 -5
0 -24 -11 -41 -24 -23 -18 -35 -22 -43 -14 -8 8 -19 8 -39 -1 -31 -13 -93 -12
-93 1 0 5 -12 8 -28 7 -38 -2 -104 24 -116 46 -6 10 -19 27 -29 37 -10 10 -15
23 -13 27 5 7 -61 24 -74 18 -3 -1 -16 6 -30 16 -30 21 -50 22 -50 3 0 -9 -7
-12 -20 -9 -21 6 -29 -20 -10 -32 6 -3 10 -15 10 -26 0 -11 11 -24 25 -31 14
-6 25 -15 25 -20 0 -4 6 -8 13 -8 7 0 33 -22 57 -50 25 -27 53 -50 63 -50 9 0
17 -4 17 -10 0 -22 -119 4 -196 43 -58 29 -164 122 -164 143 0 8 -4 14 -8 14
-26 0 -110 198 -141 335 -10 47 -27 187 -34 285 -2 25 -5 5 -7 -45 -2 -49 -5
-73 -7 -52 -2 20 -8 37 -13 37 -5 0 -11 8 -14 18 -3 9 -3 -11 0 -45 3 -34 1
-64 -4 -67 -5 -3 -7 -18 -4 -32 4 -22 2 -26 -12 -21 -12 5 -16 0 -16 -19 0
-14 5 -35 11 -46 6 -11 7 -23 3 -27 -14 -10 -32 -54 -38 -91 -9 -64 -24 -134
-40 -190 -9 -30 -16 -69 -16 -87 0 -18 -4 -33 -9 -33 -5 0 -12 -17 -16 -37 -4
-20 -12 -45 -20 -55 -37 -53 -19 63 55 352 5 19 12 58 16 85 4 28 11 61 15 73
5 13 16 65 25 115 9 51 22 126 30 167 7 41 19 113 25 160 6 47 15 87 20 88 5
2 7 7 4 12 -3 4 0 30 5 56 6 27 15 78 20 114 5 36 16 101 24 145 9 44 20 112
26 150 6 39 19 117 30 175 19 107 54 319 65 400 4 25 10 59 16 75 7 26 25 134
59 365 4 30 19 114 34 185 14 72 37 202 51 290 15 88 35 203 45 255 24 124 60
326 60 340 0 7 -489 10 -1590 10 l-1590 0 0 -1945z m2553 -1723 c3 7 6 -1 6
-18 1 -21 -5 -34 -15 -38 -9 -4 -14 -13 -10 -21 3 -9 0 -15 -9 -15 -17 0 -21
-46 -5 -52 5 -1 -2 -8 -15 -15 -22 -10 -25 -9 -25 7 0 11 5 22 10 25 6 3 10
21 10 38 0 18 5 50 11 72 10 35 12 38 24 22 10 -14 14 -15 18 -5z m-64 -260
c-14 -39 -23 -61 -51 -119 -22 -45 -24 -54 -11 -64 11 -10 11 -14 1 -20 -7 -5
-16 -9 -20 -9 -11 0 -10 47 1 68 14 26 25 55 26 72 3 36 19 97 33 125 l15 30
8 -28 c4 -16 3 -41 -2 -55z m-110 -322 c-11 -30 -33 -44 -24 -15 3 8 7 22 10
30 2 8 9 15 14 15 6 0 6 -11 0 -30z m-26 -141 c-3 -10 -11 -19 -17 -19 -16 0
-18 42 -3 52 15 9 26 -9 20 -33z m-638 -279 c0 -27 -3 -50 -7 -50 -5 0 -8 -9
-8 -19 0 -11 -4 -22 -9 -25 -13 -8 -19 36 -13 94 3 38 9 50 21 50 13 0 16 -10
16 -50z m-1580 -642 c20 -9 25 -18 25 -48 0 -22 -8 -46 -20 -60 -11 -12 -18
-26 -15 -30 2 -4 -17 -10 -42 -14 -35 -5 -51 -2 -62 9 -12 12 -12 15 -2 15 11
0 12 13 8 60 -6 50 -4 61 11 69 23 14 66 14 97 -1z m1385 2 c0 -5 -4 -10 -10
-10 -5 0 -10 5 -10 10 0 6 5 10 10 10 6 0 10 -4 10 -10z m-65 -60 c-3 -5 -12
-7 -20 -3 -21 7 -19 13 6 13 11 0 18 -4 14 -10z m2325 -10 c0 -5 -7 -10 -15
-10 -8 0 -15 5 -15 10 0 6 7 10 15 10 8 0 15 -4 15 -10z m-2475 -135 c-14 -12
-25 -26 -25 -33 0 -7 -4 -12 -10 -12 -15 0 -50 -33 -44 -42 6 -10 -16 -52 -23
-44 -9 9 -43 -25 -37 -36 7 -11 -15 -70 -30 -80 -6 -4 -13 -2 -17 4 -9 15 -29
0 -29 -22 0 -11 -10 -20 -25 -24 -14 -4 -25 -11 -25 -16 0 -6 -6 -10 -13 -10
-20 0 -62 -49 -59 -69 1 -10 -4 -24 -13 -31 -18 -15 -20 -40 -2 -41 6 -1 1 -4
-13 -8 -14 -4 -24 -14 -22 -21 3 -15 -27 -39 -50 -40 -17 0 -22 -11 -19 -38 2
-10 -4 -12 -20 -7 -14 5 -25 2 -30 -6 -13 -21 -11 -39 4 -33 8 3 19 -2 26 -10
6 -7 21 -12 31 -9 11 3 20 0 20 -6 0 -6 -5 -11 -11 -11 -6 0 -19 -10 -28 -22
-15 -17 -27 -21 -69 -19 -39 1 -52 -2 -52 -13 0 -7 9 -16 20 -19 29 -7 25 -32
-9 -56 -29 -21 -44 -19 -34 5 3 8 1 14 -3 14 -11 0 -41 -63 -50 -105 -6 -26
-8 -27 -15 -10 -6 17 -9 15 -23 -18 -9 -21 -15 -46 -12 -55 7 -21 -8 -47 -22
-38 -15 9 -32 -50 -25 -84 4 -23 2 -30 -11 -30 -9 0 -16 -4 -16 -10 0 -5 -5
-10 -11 -10 -21 0 2 73 61 196 32 67 74 144 94 171 20 28 36 54 36 59 0 5 11
22 25 38 14 16 25 34 25 41 0 6 12 22 26 36 14 13 33 37 41 53 17 32 26 45 60
82 13 14 29 37 37 52 8 15 29 43 47 62 17 19 47 52 65 72 19 20 34 42 34 48 0
5 9 10 20 10 13 0 24 10 30 25 5 14 14 25 19 25 5 0 13 9 16 20 3 11 13 20 21
20 8 0 17 8 21 18 8 24 71 82 86 79 7 -1 11 4 9 12 -4 19 30 43 40 28 5 -7 -2
-20 -17 -32z m-28 -81 c-3 -3 -12 -4 -19 -1 -8 3 -5 6 6 6 11 1 17 -2 13 -5z
m-77 -74 c0 -5 -5 -10 -11 -10 -5 0 -7 5 -4 10 3 6 8 10 11 10 2 0 4 -4 4 -10z
m383 -87 c-13 -2 -33 -2 -45 0 -13 2 -3 4 22 4 25 0 35 -2 23 -4z m-543 -93
c0 -5 -7 -7 -15 -4 -8 4 -15 8 -15 10 0 2 7 4 15 4 8 0 15 -4 15 -10z m3243
-24 c44 -24 88 -58 128 -100 23 -24 25 -86 5 -124 -8 -15 -20 -42 -27 -60 -34
-92 -181 -264 -271 -317 -9 -5 -62 -40 -117 -77 -96 -65 -133 -79 -146 -59 -5
9 -46 33 -175 103 -60 33 -141 95 -138 106 2 4 -4 18 -12 32 -50 83 -100 184
-100 200 0 18 20 10 20 -7 1 -17 32 -63 44 -63 3 0 -2 16 -10 36 -8 20 -12 39
-8 43 4 3 9 0 11 -6 3 -7 9 -13 14 -13 18 0 8 23 -25 56 -31 31 -34 38 -13 35
13 -2 26 45 22 78 -3 23 1 35 15 44 26 16 26 47 1 47 -11 0 -22 4 -26 9 -8 15
14 24 29 12 7 -6 16 -7 20 -3 11 11 70 9 78 -3 5 -6 8 -6 8 3 0 6 8 12 17 12
21 0 154 -49 168 -61 5 -5 35 -9 66 -9 45 0 69 7 115 31 105 56 117 62 148 70
61 14 112 9 159 -15z m-3407 -203 c-10 -10 -19 5 -10 18 6 11 8 11 12 0 2 -7
1 -15 -2 -18z m64 -9 c0 -3 -7 -12 -15 -20 -12 -13 -15 -13 -15 -1 0 7 3 17 7
20 8 8 23 9 23 1z m-20 -64 c0 -5 -5 -10 -11 -10 -5 0 -7 5 -4 10 3 6 8 10 11
10 2 0 4 -4 4 -10z m-333 -432 c-3 -8 -6 -5 -6 6 -1 11 2 17 5 13 3 -3 4 -12
1 -19z m4136 -22 c33 -15 77 -50 77 -61 0 -3 9 -16 21 -28 11 -12 28 -35 36
-51 14 -27 14 -28 -2 -22 -9 3 -19 6 -21 6 -2 0 -4 6 -4 13 -1 14 -35 57 -46
57 -4 0 0 -8 9 -18 11 -12 14 -29 10 -60 l-6 -42 -51 1 c-28 0 -45 3 -38 6 26
10 10 23 -28 23 -33 0 -40 -3 -40 -20 0 -17 -7 -20 -40 -20 -33 0 -40 -3 -40
-20 0 -16 -7 -20 -35 -20 -19 0 -35 -4 -35 -10 0 -5 -19 -10 -43 -10 -37 0
-44 4 -55 29 -7 15 -22 33 -35 39 -22 11 -22 11 -1 11 16 1 21 7 20 24 -1 12
-7 22 -16 22 -8 0 -14 -8 -14 -17 1 -10 -2 -16 -6 -13 -5 3 -11 -3 -13 -12 -4
-15 -5 -15 -6 3 -2 41 -46 59 -71 29 -10 -12 -15 -13 -21 -3 -10 16 0 31 17
24 8 -3 17 1 20 9 4 8 10 15 16 15 5 0 28 9 50 20 23 11 48 20 55 20 7 0 13 3
13 8 0 9 37 24 130 52 41 12 80 23 85 25 26 8 79 4 108 -9z m-4143 -16 c0 -11
-7 -20 -15 -20 -17 0 -18 2 -9 24 9 23 24 20 24 -4z m-72 -34 c-10 -7 -18 -18
-18 -25 0 -6 -4 -11 -10 -11 -13 0 -13 6 2 30 7 11 20 20 28 20 12 -1 12 -3
-2 -14z m-38 -121 c-11 -28 -34 -35 -26 -7 3 9 8 30 12 46 7 28 8 29 15 8 5
-12 4 -33 -1 -47z m17 -27 c-3 -7 -5 -2 -5 12 0 14 2 19 5 13 2 -7 2 -19 0
-25z m4423 -8 c0 -5 -2 -10 -4 -10 -3 0 -8 5 -11 10 -3 6 -1 10 4 10 6 0 11
-4 11 -10z m-4468 -49 c-9 -25 -8 -29 5 -24 11 4 14 1 11 -13 -2 -10 -8 -17
-13 -15 -6 3 -13 -8 -17 -25 -4 -16 -5 -2 -3 34 5 63 12 88 22 78 3 -3 1 -18
-5 -35z m-23 -363 c1 -10 -3 -18 -9 -18 -5 0 -10 19 -9 43 1 36 2 38 9 17 4
-14 8 -33 9 -42z m6738 26 c-3 -3 -12 -4 -19 -1 -8 3 -5 6 6 6 11 1 17 -2 13
-5z m-6713 -209 c3 -8 1 -15 -4 -15 -6 0 -10 7 -10 15 0 8 2 15 4 15 2 0 6 -7
10 -15z m26 -65 c0 -5 -2 -10 -4 -10 -3 0 -8 5 -11 10 -3 6 -1 10 4 10 6 0 11
-4 11 -10z"/>
<path d="M1120 1915 c0 -8 4 -15 10 -15 5 0 7 7 4 15 -4 8 -8 15 -10 15 -2 0
-4 -7 -4 -15z"/>
<path d="M3763 1623 c-20 -17 -21 -22 -11 -80 12 -71 36 -90 68 -57 20 21 35
112 23 131 -15 22 -58 25 -80 6z m54 -9 c-3 -3 -12 -4 -19 -1 -8 3 -5 6 6 6
11 1 17 -2 13 -5z"/>
<path d="M3510 1390 c0 -19 3 -21 12 -12 9 9 9 15 0 24 -9 9 -12 7 -12 -12z"/>
<path d="M3534 1348 c-1 -32 43 -88 77 -100 16 -6 34 -19 40 -29 5 -11 14 -17
20 -13 6 4 5 12 -3 22 -10 12 -10 16 0 19 6 3 12 11 12 19 0 17 -5 17 -30 2
-16 -10 -22 -10 -32 1 -9 9 -10 15 -2 18 11 4 10 55 -1 74 -4 5 -13 9 -21 9
-11 0 -13 -6 -9 -20 5 -14 2 -20 -9 -20 -14 0 -20 12 -17 33 0 4 -5 7 -12 7
-7 0 -13 -10 -13 -22z"/>
<path d="M3708 1203 c-32 -5 -36 -18 -10 -27 9 -3 23 -9 30 -12 7 -3 12 1 12
10 0 9 5 16 10 16 6 0 10 5 10 10 0 10 -3 10 -52 3z"/>
<path d="M3770 1150 c-12 -7 -10 -12 9 -29 13 -12 29 -21 35 -21 6 0 3 7 -7
14 -12 9 -14 16 -7 21 5 3 8 11 5 16 -8 11 -16 11 -35 -1z"/>
<path d="M3873 1123 c33 -5 31 -29 -2 -25 -13 1 -30 -2 -38 -7 -13 -7 -9 -12
20 -26 21 -9 37 -24 37 -32 0 -8 4 -11 10 -8 5 3 7 19 3 35 -5 27 -3 30 20 30
19 0 25 4 21 14 -3 8 -12 12 -19 10 -7 -3 -16 -1 -20 5 -3 6 -18 10 -33 10
l-27 -2 28 -4z"/>
<path d="M3977 1119 c8 -8 16 -8 30 0 16 9 14 10 -11 11 -22 0 -27 -3 -19 -11z"/>
<path d="M3240 7585 c0 -15 -7 -39 -15 -55 -8 -16 -12 -35 -9 -43 2 -7 -2 -19
-10 -26 -10 -8 -12 -24 -9 -51 4 -24 2 -40 -5 -40 -13 0 -24 -77 -22 -162 1
-47 -4 -75 -16 -93 -9 -14 -14 -36 -12 -50 3 -14 -1 -30 -8 -36 -11 -9 -11
-16 -2 -32 8 -16 8 -22 -1 -25 -6 -2 -11 -15 -11 -28 0 -14 -5 -35 -11 -46 -8
-15 -8 -22 2 -28 10 -7 9 -26 -2 -100 -7 -51 -18 -98 -25 -104 -6 -7 -13 -47
-16 -91 -3 -46 -10 -81 -17 -83 -6 -2 -11 -27 -11 -62 0 -32 -4 -60 -10 -62
-5 -1 -10 -36 -11 -76 -1 -52 -6 -75 -15 -79 -10 -4 -14 -23 -13 -72 2 -75 -2
-96 -19 -113 -7 -7 -12 -40 -12 -78 0 -45 -3 -61 -10 -50 -9 14 -12 -10 -14
-127 -1 -19 -9 -38 -20 -46 -16 -12 -18 -23 -14 -86 3 -40 1 -74 -4 -77 -5 -3
0 -16 11 -28 14 -15 17 -26 11 -36 -8 -12 -10 -10 -10 8 0 12 -6 22 -14 22 -8
0 -17 6 -20 13 -3 6 -3 1 1 -13 4 -14 8 -38 9 -55 1 -16 3 -34 3 -38 1 -5 6
-5 12 -1 8 4 7 9 -2 15 -12 7 -11 9 1 9 8 0 34 29 58 63 77 113 150 179 254
227 133 63 265 63 387 2 33 -16 61 -26 63 -21 2 6 13 11 25 12 12 0 20 4 17 8
-2 4 2 10 8 12 8 3 6 6 -5 6 -16 1 -16 3 -2 31 9 17 19 30 24 30 12 0 28 -21
34 -45 4 -11 4 46 2 127 l-4 148 30 17 c25 15 29 24 31 63 2 67 4 90 12 148 6
42 5 51 -6 47 -10 -4 -12 12 -10 82 2 49 8 92 13 98 6 5 9 4 9 -5 1 -19 60
106 60 126 0 8 7 14 16 14 15 0 16 9 10 65 -6 64 -6 65 21 71 41 10 53 23 53
55 0 28 -19 42 -21 17 -1 -7 -4 -2 -8 12 -8 24 5 67 16 56 3 -3 1 -12 -6 -20
-9 -11 -8 -14 6 -12 14 1 19 13 24 56 3 30 2 59 -3 65 -4 5 -8 13 -8 19 0 5 6
1 14 -9 13 -18 13 -18 24 0 8 15 5 23 -15 38 l-24 20 24 16 c14 9 35 27 47 41
14 17 23 21 26 13 10 -23 21 -13 39 35 10 26 26 58 35 72 10 14 21 35 24 48 4
12 15 22 23 22 22 0 53 29 47 45 -3 7 9 24 25 38 17 14 31 34 31 45 0 26 47
69 61 55 8 -8 16 -6 30 8 15 15 18 28 13 54 l-6 35 -589 0 -589 0 0 -25z
m1160 -45 c0 -5 -4 -10 -10 -10 -5 0 -10 5 -10 10 0 6 5 10 10 10 6 0 10 -4
10 -10z m-640 -1595 c0 -8 -4 -15 -10 -15 -5 0 -7 7 -4 15 4 8 8 15 10 15 2 0
4 -7 4 -15z m0 -75 c0 -13 -7 -20 -20 -20 -18 0 -19 3 -10 20 6 11 15 20 20
20 6 0 10 -9 10 -20z m-100 -120 c0 -5 -4 -10 -10 -10 -5 0 -10 5 -10 10 0 6
5 10 10 10 6 0 10 -4 10 -10z"/>
<path d="M4335 6428 c-9 -23 -25 -48 -34 -55 -20 -13 -46 -97 -36 -114 4 -5
-1 -9 -9 -9 -9 0 -16 -8 -16 -17 0 -9 -7 -24 -15 -33 -9 -10 -18 -27 -20 -39
-4 -24 13 -71 27 -71 4 0 8 -6 8 -14 0 -7 13 -19 29 -25 16 -7 28 -19 27 -29
-1 -11 8 -17 24 -19 41 -3 103 -19 140 -36 19 -9 70 -32 114 -52 43 -20 81
-33 84 -30 3 3 0 5 -6 5 -7 0 -12 4 -12 9 0 6 16 3 35 -5 34 -14 36 -13 63 13
15 16 34 47 41 70 9 28 18 40 27 36 17 -6 18 9 2 26 -11 11 -9 12 7 8 11 -3
38 -8 60 -12 40 -6 40 -5 58 37 26 66 23 84 -20 108 l-38 21 43 -6 c38 -5 43
-3 51 18 5 13 11 39 13 57 l3 33 -90 29 c-151 50 -255 78 -447 122 -92 22 -94
21 -113 -26z"/>
<path d="M3705 5680 c4 -6 11 -8 16 -5 14 9 11 15 -7 15 -8 0 -12 -5 -9 -10z"/>
<path d="M3831 5494 c0 -11 3 -14 6 -6 3 7 2 16 -1 19 -3 4 -6 -2 -5 -13z"/>
<path d="M3916 5453 c-6 -14 -5 -15 5 -6 7 7 10 15 7 18 -3 3 -9 -2 -12 -12z"/>
<path d="M3861 5414 c0 -11 3 -14 6 -6 3 7 2 16 -1 19 -3 4 -6 -2 -5 -13z"/>
<path d="M3886 5399 c-9 -48 -6 -57 9 -24 16 35 19 55 6 55 -5 0 -11 -14 -15
-31z"/>
<path d="M2881 5404 c0 -11 3 -14 6 -6 3 7 2 16 -1 19 -3 4 -6 -2 -5 -13z"/>
<path d="M2852 5375 c0 -16 2 -22 5 -12 2 9 2 23 0 30 -3 6 -5 -1 -5 -18z"/>
<path d="M4141 5109 c-73 -29 -132 -117 -146 -217 -19 -140 54 -295 163 -348
81 -39 195 -11 248 63 72 100 72 256 -2 374 -63 101 -184 160 -263 128z m193
-151 c20 -29 20 -72 0 -92 -49 -49 -118 30 -84 95 15 27 64 25 84 -3z"/>
<path d="M3392 5074 c-195 -97 -243 -414 -80 -528 110 -78 254 -21 331 128 40
79 50 209 22 283 -49 127 -158 174 -273 117z m216 -156 c17 -17 15 -78 -5
-100 -50 -55 -112 27 -67 90 17 24 53 29 72 10z"/>
<path d="M2752 4870 c0 -14 2 -19 5 -12 2 6 2 18 0 25 -3 6 -5 1 -5 -13z"/>
<path d="M3853 2301 l0 -28 22 21 c12 11 20 25 17 31 -3 5 -7 4 -10 -3 -2 -7
-8 -12 -13 -12 -6 0 -7 5 -4 10 3 6 2 10 -3 10 -5 0 -9 -13 -9 -29z"/>
<path d="M3936 2258 c-20 -28 -20 -45 -1 -45 20 0 54 37 34 37 -10 1 -8 5 5
15 19 15 19 15 -2 15 -11 0 -28 -10 -36 -22z"/>
<path d="M5704 1803 c-14 -31 -17 -56 -18 -136 -1 -42 -5 -77 -10 -77 -22 0
41 -46 83 -61 26 -9 70 -26 100 -38 30 -11 57 -18 60 -14 3 3 0 8 -6 10 -8 3
-13 21 -13 43 0 26 -6 42 -17 49 -13 7 -16 21 -14 60 2 41 -1 51 -13 51 -12 0
-16 10 -16 40 0 23 -5 40 -11 40 -7 0 -18 8 -25 18 -13 16 -15 16 -28 -1 -14
-18 -15 -17 -18 5 -4 29 -42 37 -54 11z"/>
<path d="M1200 1500 c0 -17 7 -20 40 -20 33 0 40 3 40 20 0 17 -7 20 -40 20
-33 0 -40 -3 -40 -20z"/>
<path d="M920 1025 c0 -14 4 -25 9 -25 12 0 19 21 13 38 -8 21 -22 13 -22 -13z"/>
</g>
</svg>
